# xmcd CD database file
#
# Track frame offsets:
#	150
#	26753
#	56164
#	73945
#	101950
#	126819
#	155824
#	178436
#	205659
#	227169
#	254081
#
# Disc length: 3765 seconds
#
# Revision: 0
# Processed by: cddbd v1.5.2PL0 Copyright (c) Steve Scherf et al.
# Submitted via: CDex 1.70beta2
#
DISCID=b10eb30b
DTITLE=樹里からん - TORCH
DYEAR=2011
DGENRE=Jazz
TTITLE0=接吻/Kiss
TTITLE1=Ti Amo
TTITLE2=恋人よ
TTITLE3=PRIDE
TTITLE4=ワインレッドの心
TTITLE5=ミスター・サマータイム
TTITLE6=セカンド・ラブ
TTITLE7=カムフラージュ
TTITLE8=ANNIVERSARY
TTITLE9=時代
TTITLE10=Shima-Uta
EXTD=YEAR: 2011
EXTT0=
EXTT1=
EXTT2=
EXTT3=
EXTT4=
EXTT5=
EXTT6=
EXTT7=
EXTT8=
EXTT9=
EXTT10=
PLAYORDER=
